# xmcd
#
# Track frame offsets:
#	150
#	26587
#	44885
#	61720
#	107488
#	124730
#
# Disc length: 2065 seconds
#
# Revision: 1
# Processed by: cddbd v1.5.2PL0 Copyright (c) Steve Scherf et al.
# Submitted via: audiograbber 1.83.01
#
DISCID=4b080f06
DTITLE=Grateful Dead - 69-05-07 Golden Gate Park, San Francisco CA
DYEAR=1900
DGENRE=
TTITLE0=Me and My Uncle
TTITLE1=Stage Banter
TTITLE2=Instrumental jam
TTITLE3=The Other One
TTITLE4=Smokestack Lightning
TTITLE5=Good Lovin'
EXTD=
EXTT0=
EXTT1=
EXTT2=
EXTT3=
EXTT4=
EXTT5=
PLAYORDER=
